<svg version="1.1" viewBox="0 0 63 72" xmlns="http://www.w3.org/2000/svg">
	<path id="snow"
		d="M34.42 4.519c0-1.613-1.307-2.92-2.92-2.92s-2.92 1.307-2.92 2.92v4.72l-2.070-1.035c-1.442-0.721-3.196-0.136-3.918 1.306s-0.137 3.196 1.306 3.918l4.682 2.341v7.495l-6.628 3.853-6.514-3.761 0.314-5.225c0.097-1.61-1.13-2.993-2.74-3.090s-2.993 1.13-3.090 2.74l-0.139 2.311-4.087-2.36c-1.397-0.806-3.182-0.328-3.989 1.069s-0.328 3.182 1.069 3.989l4.087 2.36-1.932 1.275c-1.346 0.889-1.716 2.7-0.828 4.046s2.7 1.717 4.046 0.828l4.368-2.884 6.491 3.748 0.023 7.666-6.514 3.761-4.368-2.884c-1.346-0.889-3.157-0.518-4.046 0.828s-0.518 3.157 0.828 4.046l1.932 1.275-4.087 2.36c-1.397 0.806-1.875 2.592-1.069 3.989s2.592 1.875 3.989 1.069l4.087-2.36 0.139 2.311c0.097 1.61 1.48 2.836 3.090 2.74s2.836-1.48 2.74-3.090l-0.314-5.225 6.491-3.748 6.651 3.813v7.522l-4.682 2.341c-1.442 0.721-2.027 2.475-1.306 3.918s2.475 2.027 3.918 1.306l2.070-1.035v4.72c0 1.613 1.307 2.92 2.92 2.92s2.92-1.307 2.92-2.92v-4.72l2.070 1.035c1.442 0.721 3.196 0.136 3.918-1.306s0.136-3.196-1.306-3.918l-4.682-2.341v-7.495l6.628-3.853 6.514 3.761-0.314 5.225c-0.097 1.61 1.13 2.993 2.74 3.090s2.993-1.13 3.090-2.74l0.139-2.311 4.087 2.36c1.396 0.806 3.182 0.328 3.989-1.069s0.328-3.182-1.069-3.989l-4.087-2.36 1.932-1.275c1.346-0.889 1.716-2.7 0.828-4.046s-2.7-1.717-4.046-0.828l-4.368 2.884-6.491-3.748-0.023-7.666 6.514-3.761 4.368 2.884c1.346 0.889 3.157 0.518 4.046-0.828s0.518-3.157-0.828-4.046l-1.932-1.275 4.087-2.36c1.396-0.806 1.875-2.592 1.069-3.989s-2.592-1.875-3.989-1.069l-4.087 2.36-0.139-2.311c-0.097-1.61-1.48-2.836-3.090-2.74s-2.836 1.48-2.74 3.090l0.314 5.225-6.491 3.748-6.651-3.813v-7.522l4.682-2.341c1.442-0.721 2.027-2.475 1.306-3.918s-2.475-2.027-3.918-1.306l-2.070 1.035v-4.72zM24.85 32.187l0.023 7.666 6.651 3.813 6.627-3.853-0.023-7.666-6.651-3.813-6.627 3.853z" />
</svg>
