<svg version="1.1" viewBox="0 0 72 72" xmlns="http://www.w3.org/2000/svg">
	<path id="car-door"
		d="M66.071 4.5h-36.405c-1.508 0.007-2.954 0.592-4.039 1.634l-23.749 22.041c-1.198 1.117-1.878 2.676-1.879 4.31v28.601c0.006 3.54 2.889 6.408 6.446 6.414h59.625c3.27 0 5.923-2.634 5.929-5.888v-51.224c-0.006-3.254-2.659-5.888-5.929-5.888zM58.928 47.328c0 1.237-1.007 2.239-2.25 2.239h-10.988c-1.243 0-2.25-1.002-2.25-2.239v-3.515h15.487v3.515zM60.75 34.881c0 1.237-1.007 2.239-2.25 2.239h-44.066c-0.922-0.003-1.749-0.566-2.086-1.42s-0.117-1.826 0.556-2.453l18.214-16.948c0.409-0.381 0.947-0.597 1.507-0.605h25.875c1.243 0 2.25 1.002 2.25 2.239v16.948z" />
</svg>
