<svg version="1.1" viewBox="0 0 768 768" xmlns="http://www.w3.org/2000/svg">
	<path id="gas"
		d="M743.33 578.778c-0.982-6.079-2.431-11.993-4.301-17.697s-4.162-11.198-6.826-16.481c-2.665-5.284-5.75-10.403-9.14-15.149-15.101-20.969-28.871-43.132-40.49-65.995s-21.414-46.638-29.292-70.997c-7.878-24.382-13.84-49.373-17.861-74.762s-6.079-51.15-6.102-77.053c-0.023-18.656-2.595-37.194-7.457-55.101-4.839-17.884-11.946-35.16-21.064-51.268-9.094-16.13-20.199-31.115-32.986-44.464-12.811-13.325-27.305-25.038-43.225-34.575-0.607-0.445-1.262-0.795-1.94-1.099-0.677-0.28-1.379-0.468-2.128-0.608-0.725-0.116-1.472-0.14-2.244-0.093s-1.543 0.211-2.314 0.445c-0.772 0.234-1.519 0.584-2.221 1.006s-1.356 0.911-1.964 1.449c-0.607 0.561-1.192 1.169-1.706 1.847-0.514 0.654-0.982 1.379-1.379 2.151-1.753 3.343-3.016 6.849-3.81 10.334s-1.099 6.944-0.958 10.192c0.139 3.25 0.749 6.288 1.823 8.93 1.052 2.642 2.572 4.886 4.512 6.593 11.198 8.79 21.064 18.89 29.502 29.924 8.463 11.034 15.5 22.98 21.040 35.488 2.151 4.816 3.857 9.819 5.541 14.774l-35.604 60.244c-7.551 12.787-3.483 29.035 8.183 38.222 1.847 1.449 10.333 9.351 13.863 12.951 14.447 14.658 25.903 32.331 32.121 52.249 0.188 0.608 0.164 1.099 0.373 1.683 4.255 22.606 9.562 45.025 16.622 66.907 8.744 27.048 19.59 53.371 32.471 78.759 12.905 25.388 27.843 49.817 44.744 73.032 1.871 2.665 3.554 5.423 5.003 8.322 1.449 2.875 2.712 5.845 3.717 8.93 1.006 3.062 1.777 6.265 2.315 9.515 0.514 3.273 0.795 6.616 0.795 10.053-0.023 8.837-1.823 17.229-5.050 24.897-3.25 7.645-7.925 14.54-13.723 20.339s-12.67 10.473-20.315 13.723c-7.645 3.226-16.060 5.027-24.897 5.050-4.442 0-8.767-0.445-12.928-1.286-4.162-0.865-8.183-2.104-11.992-3.717s-7.457-3.601-10.846-5.891c-3.39-2.315-6.569-4.909-9.492-7.832-2.899-2.922-5.541-6.102-7.832-9.492-2.315-3.413-4.278-7.037-5.891-10.847s-2.875-7.832-3.717-11.992c-0.841-4.162-1.286-8.463-1.309-12.928v-216.944c0-0.023 0-0.023 0-0.023s0-0.023 0-0.023c0 0 0 0 0-0.023 0-14.892-3.016-29.058-8.463-41.94s-13.348-24.476-23.097-34.225c-9.749-9.749-21.344-17.627-34.225-23.097-12.881-5.446-27.025-8.44-41.869-8.463v-227.931c0-24.733-20.222-44.791-44.955-44.791h-301.851c-24.734 0-44.792 20.058-44.978 44.791v655.647c0 7.574-6.125 13.699-13.676 13.699h-14.517c-6.686 0-12.109 5.423-12.109 12.11v29.643c0 6.686 5.423 12.11 12.109 12.11h448.265c6.686 0 12.109-5.423 12.109-12.11v-29.643c0-6.686-5.423-12.11-12.109-12.11h-14.564c-7.574 0-13.676-6.125-13.676-13.699v-373.9c7.411 0.023 14.494 1.519 20.899 4.231 6.429 2.735 12.227 6.663 17.089 11.525 4.862 4.885 8.813 10.66 11.525 17.113 2.735 6.452 4.255 13.536 4.255 20.992v216.967c0 16.271 3.296 31.771 9.258 45.866 5.961 14.12 14.611 26.814 25.271 37.451s23.354 19.286 37.451 25.247c14.097 5.961 29.597 9.258 45.866 9.258s31.771-3.296 45.866-9.258c14.097-5.961 26.791-14.611 37.451-25.247s19.286-23.354 25.247-37.451c5.961-14.097 9.258-29.596 9.258-45.866 0.046-6.288-0.468-12.53-1.449-18.585zM553.061 251.912l21.553-36.422c0.725 8.369 1.052 16.785 0.818 25.131-0.327 11.15 0.093 22.279 0.795 33.383-7.060-7.995-14.611-15.569-23.167-22.091zM401.504 258.973c0 7.574-6.125 13.7-13.676 13.7h-256.639c-7.574 0-13.675-6.125-13.675-13.7v-191.509c0-7.574 6.125-13.7 13.675-13.7h256.616c7.574 0 13.676 6.125 13.676 13.7v191.509z" />
</svg>
