<svg version="1.1" viewBox="0 0 72 72" xmlns="http://www.w3.org/2000/svg">
	<path id="case"
		d="M18.071 11.61v12.189c-0.002 0.071-0.002 0.119 0 0.167v40.972c0 0.008 0 0.016 0 0.024h35.857c-0-0.008-0-0.016 0-0.024v-41.020c0.001-0.032 0.001-0.063 0-0.095v-12.213c0-2.506-2.209-4.571-4.889-4.571h-26.078c-2.681 0-4.889 2.065-4.889 4.571zM49.039 10.086c0.931 0 1.63 0.653 1.63 1.524v12.189c0 0.008 0 0.016 0 0.024h-29.338c0-0.008 0-0.016 0-0.024v-12.189c0-0.871 0.698-1.524 1.63-1.524h26.078zM1.773 26.87v35.044c0 1.688 1.454 3.047 3.26 3.047h7.146c0-0.008 0-0.016 0-0.024v-41.115h-7.146c-1.806 0-3.26 1.359-3.26 3.047zM59.821 64.938c0 0.008 0 0.016 0 0.024h7.146c1.806 0 3.26-1.359 3.26-3.047v-35.044c0-1.688-1.454-3.047-3.26-3.047h-7.146v41.115z" />
</svg>
